<mxfile host="Electron" agent="Mozilla/5.0 (Windows NT 10.0; Win64; x64) AppleWebKit/537.36 (KHTML, like Gecko) draw.io/24.7.17 Chrome/128.0.6613.36 Electron/32.0.1 Safari/537.36" version="24.7.17">
  <diagram name="Page-1" id="JA4he1JQ6_WZ_wBxmguo">
    <mxGraphModel dx="763" dy="807" grid="1" gridSize="10" guides="1" tooltips="1" connect="1" arrows="1" fold="1" page="1" pageScale="1" pageWidth="1100" pageHeight="850" math="0" shadow="0">
      <root>
        <mxCell id="0" />
        <mxCell id="1" parent="0" />
        <mxCell id="paOp8wBhauXRTZvvB8hl-1" value="VPC" style="points=[[0,0],[0.25,0],[0.5,0],[0.75,0],[1,0],[1,0.25],[1,0.5],[1,0.75],[1,1],[0.75,1],[0.5,1],[0.25,1],[0,1],[0,0.75],[0,0.5],[0,0.25]];outlineConnect=0;gradientColor=none;html=1;whiteSpace=wrap;fontSize=12;fontStyle=0;container=1;pointerEvents=0;collapsible=0;recursiveResize=0;shape=mxgraph.aws4.group;grIcon=mxgraph.aws4.group_vpc2;strokeColor=#8C4FFF;fillColor=none;verticalAlign=top;align=left;spacingLeft=30;fontColor=#AAB7B8;dashed=0;" vertex="1" parent="1">
          <mxGeometry x="160" y="120" width="400" height="400" as="geometry" />
        </mxCell>
        <mxCell id="paOp8wBhauXRTZvvB8hl-2" value="" style="outlineConnect=0;dashed=0;verticalLabelPosition=bottom;verticalAlign=top;align=center;html=1;shape=mxgraph.aws3.internet_gateway;fillColor=#F58534;gradientColor=none;" vertex="1" parent="paOp8wBhauXRTZvvB8hl-1">
          <mxGeometry x="-40" y="160" width="69" height="72" as="geometry" />
        </mxCell>
        <mxCell id="paOp8wBhauXRTZvvB8hl-3" value="Subnet" style="sketch=0;outlineConnect=0;gradientColor=none;html=1;whiteSpace=wrap;fontSize=12;fontStyle=0;shape=mxgraph.aws4.group;grIcon=mxgraph.aws4.group_subnet;strokeColor=#879196;fillColor=none;verticalAlign=top;align=left;spacingLeft=30;fontColor=#879196;dashed=0;" vertex="1" parent="paOp8wBhauXRTZvvB8hl-1">
          <mxGeometry x="120" y="40" width="240" height="320" as="geometry" />
        </mxCell>
        <mxCell id="paOp8wBhauXRTZvvB8hl-8" value="" style="edgeStyle=orthogonalEdgeStyle;rounded=0;orthogonalLoop=1;jettySize=auto;html=1;" edge="1" parent="paOp8wBhauXRTZvvB8hl-1" source="paOp8wBhauXRTZvvB8hl-6" target="paOp8wBhauXRTZvvB8hl-2">
          <mxGeometry relative="1" as="geometry" />
        </mxCell>
        <mxCell id="paOp8wBhauXRTZvvB8hl-6" value="" style="sketch=0;outlineConnect=0;fontColor=#232F3E;gradientColor=none;fillColor=#8C4FFF;strokeColor=none;dashed=0;verticalLabelPosition=bottom;verticalAlign=top;align=center;html=1;fontSize=12;fontStyle=0;aspect=fixed;pointerEvents=1;shape=mxgraph.aws4.route_table;" vertex="1" parent="paOp8wBhauXRTZvvB8hl-1">
          <mxGeometry x="80" y="158" width="78" height="76" as="geometry" />
        </mxCell>
        <mxCell id="paOp8wBhauXRTZvvB8hl-9" style="edgeStyle=orthogonalEdgeStyle;rounded=0;orthogonalLoop=1;jettySize=auto;html=1;" edge="1" parent="paOp8wBhauXRTZvvB8hl-1" source="paOp8wBhauXRTZvvB8hl-7" target="paOp8wBhauXRTZvvB8hl-6">
          <mxGeometry relative="1" as="geometry" />
        </mxCell>
        <mxCell id="paOp8wBhauXRTZvvB8hl-7" value="" style="sketch=0;points=[[0,0,0],[0.25,0,0],[0.5,0,0],[0.75,0,0],[1,0,0],[0,1,0],[0.25,1,0],[0.5,1,0],[0.75,1,0],[1,1,0],[0,0.25,0],[0,0.5,0],[0,0.75,0],[1,0.25,0],[1,0.5,0],[1,0.75,0]];outlineConnect=0;fontColor=#232F3E;fillColor=#ED7100;strokeColor=#ffffff;dashed=0;verticalLabelPosition=bottom;verticalAlign=top;align=center;html=1;fontSize=12;fontStyle=0;aspect=fixed;shape=mxgraph.aws4.resourceIcon;resIcon=mxgraph.aws4.ec2;" vertex="1" parent="paOp8wBhauXRTZvvB8hl-1">
          <mxGeometry x="221" y="157" width="78" height="78" as="geometry" />
        </mxCell>
        <mxCell id="paOp8wBhauXRTZvvB8hl-4" value="" style="image;aspect=fixed;perimeter=ellipsePerimeter;html=1;align=center;shadow=0;dashed=0;spacingTop=3;image=img/lib/active_directory/internet_cloud.svg;" vertex="1" parent="1">
          <mxGeometry x="20" y="300.25" width="50" height="31.5" as="geometry" />
        </mxCell>
        <mxCell id="paOp8wBhauXRTZvvB8hl-5" value="" style="edgeStyle=orthogonalEdgeStyle;rounded=0;orthogonalLoop=1;jettySize=auto;html=1;" edge="1" parent="1" source="paOp8wBhauXRTZvvB8hl-2" target="paOp8wBhauXRTZvvB8hl-4">
          <mxGeometry relative="1" as="geometry" />
        </mxCell>
      </root>
    </mxGraphModel>
  </diagram>
</mxfile>
